<svg width="396" height="371" viewBox="0 0 396 371" fill="none" xmlns="http://www.w3.org/2000/svg">
<path d="M376.371 317.107C376.371 166.877 25.1357 229.237 25.1358 56.4362" stroke="#75BF7A" stroke-width="4.04932" stroke-linecap="round" stroke-linejoin="round" stroke-dasharray="12.15 12.15"/>
<path d="M372.977 313.463C378.923 313.47 384.622 315.835 388.826 320.039C393.03 324.243 395.395 329.942 395.402 335.888C395.409 340.746 393.822 345.473 390.885 349.343C390.885 349.343 390.273 350.148 390.173 350.264L372.977 370.545L355.773 350.254C355.683 350.146 355.07 349.343 355.07 349.343L355.068 349.337C352.131 345.469 350.545 340.744 350.552 335.888C350.559 329.942 352.924 324.243 357.128 320.039C361.332 315.835 367.032 313.47 372.977 313.463ZM372.977 344.042C374.59 344.042 376.167 343.564 377.508 342.668C378.849 341.772 379.894 340.498 380.511 339.008C381.128 337.518 381.29 335.879 380.975 334.297C380.66 332.715 379.884 331.262 378.743 330.122C377.603 328.981 376.15 328.204 374.568 327.89C372.986 327.575 371.347 327.737 369.857 328.354C368.367 328.971 367.093 330.016 366.197 331.357C365.301 332.698 364.823 334.275 364.823 335.888C364.825 338.05 365.685 340.122 367.214 341.651C368.743 343.18 370.815 344.04 372.977 344.042Z" fill="#75BF7A"/>
<path d="M25.5456 0.0454102C31.4909 0.0524241 37.1908 2.41731 41.3948 6.62131C45.5988 10.8253 47.9637 16.5251 47.9707 22.4705C47.9778 27.329 46.3908 32.0558 43.453 35.9255C43.453 35.9255 42.8414 36.7308 42.7415 36.847L25.5456 57.1274L8.34142 36.8368C8.25171 36.7288 7.63808 35.9255 7.63808 35.9255L7.63604 35.9194C4.69977 32.0513 3.11347 27.3268 3.12044 22.4705C3.12745 16.5251 5.49234 10.8253 9.69635 6.62131C13.9004 2.41731 19.6002 0.0524241 25.5456 0.0454102ZM25.5456 30.6251C27.1584 30.6251 28.735 30.1468 30.076 29.2508C31.417 28.3547 32.4622 27.0812 33.0794 25.5911C33.6966 24.1011 33.8581 22.4615 33.5435 20.8796C33.2288 19.2978 32.4522 17.8448 31.3117 16.7043C30.1713 15.5639 28.7183 14.7873 27.1364 14.4726C25.5546 14.158 23.915 14.3194 22.4249 14.9366C20.9349 15.5539 19.6613 16.599 18.7653 17.9401C17.8692 19.2811 17.391 20.8577 17.391 22.4705C17.3937 24.6324 18.2537 26.705 19.7824 28.2337C21.3111 29.7624 23.3837 30.6224 25.5456 30.6251Z" fill="#75BF7A"/>
</svg>
